<svg width="200" height="205" viewBox="0 0 200 205" fill="none" xmlns="http://www.w3.org/2000/svg">
<path d="M59.6426 126.856C39.3212 130.312 22.4247 136.681 11.8321 144.878C1.2395 153.075 -2.39385 162.592 1.55114 171.808C5.49612 181.024 16.7754 189.369 33.467 195.42C50.1586 201.472 71.2299 204.856 93.0906 204.995C114.951 205.135 136.249 202.022 153.354 196.187C170.459 190.351 182.314 182.154 186.899 172.993C191.484 163.831 188.514 154.272 178.497 145.943C168.479 137.615 152.034 131.033 131.962 127.318L94.5 164.5L59.6426 126.856Z" fill="#5B5B5B"/>
<path d="M38.4542 131.892C22.389 136.963 10.4818 144.084 4.43856 152.234C-1.60469 160.383 -1.47381 169.144 4.81244 177.26C11.0987 185.375 23.2177 192.43 39.4331 197.413C55.6484 202.396 75.128 205.052 95.0807 204.999C115.033 204.947 134.435 202.189 150.507 197.121C166.578 192.053 178.494 184.935 184.547 176.786C190.6 168.638 190.479 159.877 184.203 151.76C177.926 143.643 165.816 136.585 149.606 131.599L94.5 164.5L38.4542 131.892Z" fill="#E08C4E"/>
<circle cx="95" cy="84" r="40" fill="#E08C4E"/>
<path d="M158.818 76.8182V76.2727C158.879 70.4848 159.485 65.8788 160.636 62.4545C161.788 59.0303 163.424 56.2576 165.545 54.1364C167.667 52.0152 170.212 50.0606 173.182 48.2727C174.97 47.1818 176.576 45.8939 178 44.4091C179.424 42.8939 180.545 41.1515 181.364 39.1818C182.212 37.2121 182.636 35.0303 182.636 32.6364C182.636 29.6667 181.939 27.0909 180.545 24.9091C179.152 22.7273 177.288 21.0455 174.955 19.8636C172.621 18.6818 170.03 18.0909 167.182 18.0909C164.697 18.0909 162.303 18.6061 160 19.6364C157.697 20.6667 155.773 22.2879 154.227 24.5C152.682 26.7121 151.788 29.6061 151.545 33.1818H140.091C140.333 28.0303 141.667 23.6212 144.091 19.9545C146.545 16.2879 149.773 13.4848 153.773 11.5454C157.803 9.60606 162.273 8.63636 167.182 8.63636C172.515 8.63636 177.152 9.69697 181.091 11.8182C185.061 13.9394 188.121 16.8485 190.273 20.5454C192.455 24.2424 193.545 28.4545 193.545 33.1818C193.545 36.5151 193.03 39.5303 192 42.2273C191 44.9242 189.545 47.3333 187.636 49.4545C185.758 51.5758 183.485 53.4545 180.818 55.0909C178.152 56.7576 176.015 58.5152 174.409 60.3636C172.803 62.1818 171.636 64.3485 170.909 66.8636C170.182 69.3788 169.788 72.5152 169.727 76.2727V76.8182H158.818ZM164.636 103.727C162.394 103.727 160.47 102.924 158.864 101.318C157.258 99.7121 156.455 97.7879 156.455 95.5455C156.455 93.303 157.258 91.3788 158.864 89.7727C160.47 88.1667 162.394 87.3636 164.636 87.3636C166.879 87.3636 168.803 88.1667 170.409 89.7727C172.015 91.3788 172.818 93.303 172.818 95.5455C172.818 97.0303 172.439 98.3939 171.682 99.6364C170.955 100.879 169.97 101.879 168.727 102.636C167.515 103.364 166.152 103.727 164.636 103.727Z" fill="#5B5B5B"/>
</svg>
