<svg width="155" height="150" viewBox="0 0 155 150" fill="none" xmlns="http://www.w3.org/2000/svg">
<rect x="63.4615" y="1.23627" width="46.1538" height="98.9011" fill="#E08C4E"/>
<rect x="96.8407" y="19.7802" width="40.7967" height="78.7088" fill="#E08C4E"/>
<rect x="46.978" y="28.4341" width="37.0879" height="61.4011" fill="#E08C4E"/>
<rect x="34.1085" y="52.8167" width="11.5512" height="50.1629" transform="rotate(-21.5715 34.1085 52.8167)" fill="#E08C4E"/>
<rect x="139.569" y="47.8022" width="11.5512" height="50.1629" transform="rotate(17.5407 139.569 47.8022)" fill="#E08C4E"/>
<rect x="34.2033" y="47.8022" width="116.209" height="7.00549" fill="#E08C4E"/>
<rect x="49.8626" y="86.9506" width="86.9505" height="11.5385" fill="#E08C4E"/>
<rect x="19.9786" y="25.2814" width="4.94505" height="101.369" transform="rotate(-21.5613 19.9786 25.2814)" fill="#5B5B5B"/>
<rect x="59.7527" y="115.797" width="68.8187" height="4.94506" fill="#5B5B5B"/>
<rect x="2.73254" y="18.8885" width="20.776" height="4.94505" transform="rotate(9.34923 2.73254 18.8885)" fill="#5B5B5B"/>
<rect x="32.1429" y="46.5659" width="120.33" height="3.2967" fill="#5B5B5B"/>
<rect x="150.883" y="47.4248" width="3.2967" height="54.2139" transform="rotate(17.7725 150.883 47.4248)" fill="#5B5B5B"/>
<rect x="52.3352" y="98.0769" width="83.6538" height="3.29671" fill="#5B5B5B"/>
<rect x="46.5659" y="79.533" width="95.6044" height="3.29671" fill="#5B5B5B"/>
<rect x="72.5275" y="47.2095" width="3.2967" height="53.604" transform="rotate(-8.16167 72.5275 47.2095)" fill="#5B5B5B"/>
<rect x="112.215" y="46.5464" width="3.2967" height="53.2051" transform="rotate(7.82798 112.215 46.5464)" fill="#5B5B5B"/>
<rect x="38.3242" y="63.0494" width="107.967" height="3.2967" fill="#5B5B5B"/>
<rect x="45.7418" y="27.6099" width="39.1484" height="2.06044" fill="#6C6C6C"/>
<rect x="45.7418" y="27.6099" width="2.06044" height="18.956" fill="#6C6C6C"/>
<rect x="82.8297" y="28.022" width="2.06044" height="18.544" fill="#6C6C6C"/>
<rect x="97.2527" y="18.9561" width="41.2088" height="2.06044" fill="#6C6C6C"/>
<rect x="95.6044" y="18.9561" width="2.06044" height="27.6099" fill="#6C6C6C"/>
<rect x="136.401" y="19.7802" width="2.06044" height="26.7857" fill="#6C6C6C"/>
<rect x="62.2253" width="48.2143" height="2.06044" fill="#6C6C6C"/>
<rect x="62.2253" width="2.06044" height="29.6703" fill="#6C6C6C"/>
<rect x="108.379" width="2.06044" height="21.0165" fill="#6C6C6C"/>
<circle cx="78.7088" cy="137.637" r="7.36264" stroke="#5B5B5B" stroke-width="10"/>
<path d="M119.863 137.637C119.863 141.704 116.566 145 112.5 145C108.434 145 105.137 141.704 105.137 137.637C105.137 133.571 108.434 130.275 112.5 130.275C116.566 130.275 119.863 133.571 119.863 137.637Z" stroke="#5B5B5B" stroke-width="10"/>
<ellipse cx="59.3407" cy="118.269" rx="2.47253" ry="2.47253" fill="#5B5B5B"/>
<circle cx="2.47253" cy="21.4286" r="2.47253" fill="#5B5B5B"/>
<circle cx="22.2527" cy="24.7253" r="2.47253" fill="#5B5B5B"/>
<ellipse cx="128.159" cy="118.269" rx="2.47253" ry="2.47253" fill="#5B5B5B"/>
<ellipse cx="152.473" cy="48.2143" rx="1.64835" ry="1.64835" fill="#5B5B5B"/>
<ellipse cx="135.989" cy="99.7253" rx="1.64835" ry="1.64835" fill="#5B5B5B"/>
<rect x="53.1593" y="48.5654" width="3.2967" height="53.1593" transform="rotate(-13.3847 53.1593 48.5654)" fill="#5B5B5B"/>
<rect x="133.141" y="47.4977" width="3.2967" height="53.1593" transform="rotate(13.3057 133.141 47.4977)" fill="#5B5B5B"/>
<rect x="93.6012" y="47.387" width="3.2967" height="53.1593" transform="rotate(0.568292 93.6012 47.387)" fill="#5B5B5B"/>
</svg>
