<svg width="155" height="150" viewBox="0 0 155 150" fill="none" xmlns="http://www.w3.org/2000/svg">
<rect width="46.1538" height="98.9011" transform="matrix(-1 0 0 1 90.6593 1.23627)" fill="#FBD2B5"/>
<rect width="40.7967" height="78.7088" transform="matrix(-1 0 0 1 57.2802 19.7802)" fill="#FBD2B5"/>
<rect width="37.0879" height="61.4011" transform="matrix(-1 0 0 1 107.143 28.4341)" fill="#FBD2B5"/>
<rect width="11.5512" height="50.1629" transform="matrix(-0.92996 -0.367661 -0.367661 0.92996 120.012 52.8167)" fill="#FBD2B5"/>
<rect width="11.5512" height="50.1629" transform="matrix(-0.953503 0.301384 0.301384 0.953503 14.5521 47.8022)" fill="#FBD2B5"/>
<rect width="116.209" height="7.00549" transform="matrix(-1 0 0 1 119.918 47.8022)" fill="#FBD2B5"/>
<rect width="86.9505" height="11.5385" transform="matrix(-1 0 0 1 104.258 86.9506)" fill="#FBD2B5"/>
<rect width="4.94505" height="101.369" transform="matrix(-0.930025 -0.367496 -0.367496 0.930025 134.142 25.2814)" fill="#5B5B5B"/>
<rect width="68.8187" height="4.94506" transform="matrix(-1 0 0 1 94.3681 115.797)" fill="#5B5B5B"/>
<rect width="20.776" height="4.94505" transform="matrix(-0.986717 0.162452 0.162452 0.986717 151.388 18.8885)" fill="#5B5B5B"/>
<rect width="120.33" height="3.2967" transform="matrix(-1 0 0 1 121.978 46.5659)" fill="#5B5B5B"/>
<rect width="3.2967" height="54.2139" transform="matrix(-0.952276 0.305238 0.305238 0.952276 3.23831 47.4248)" fill="#5B5B5B"/>
<rect width="83.6538" height="3.29671" transform="matrix(-1 0 0 1 101.786 98.0769)" fill="#5B5B5B"/>
<rect width="95.6044" height="3.29671" transform="matrix(-1 0 0 1 107.555 79.533)" fill="#5B5B5B"/>
<rect width="3.2967" height="53.604" transform="matrix(-0.989871 -0.141967 -0.141967 0.989871 81.5934 47.2095)" fill="#5B5B5B"/>
<rect width="3.2967" height="53.2051" transform="matrix(-0.990681 0.136199 0.136199 0.990681 41.906 46.5464)" fill="#5B5B5B"/>
<rect width="107.967" height="3.2967" transform="matrix(-1 0 0 1 115.797 63.0494)" fill="#5B5B5B"/>
<rect width="39.1484" height="2.06044" transform="matrix(-1 0 0 1 108.379 27.6099)" fill="#6C6C6C"/>
<rect width="2.06044" height="18.956" transform="matrix(-1 0 0 1 108.379 27.6099)" fill="#6C6C6C"/>
<rect width="2.06044" height="18.544" transform="matrix(-1 0 0 1 71.2912 28.022)" fill="#6C6C6C"/>
<rect width="41.2088" height="2.06044" transform="matrix(-1 0 0 1 56.8681 18.9561)" fill="#6C6C6C"/>
<rect width="2.06044" height="27.6099" transform="matrix(-1 0 0 1 58.5165 18.9561)" fill="#6C6C6C"/>
<rect width="2.06044" height="26.7857" transform="matrix(-1 0 0 1 17.7198 19.7802)" fill="#6C6C6C"/>
<rect width="48.2143" height="2.06044" transform="matrix(-1 0 0 1 91.8956 0)" fill="#6C6C6C"/>
<rect width="2.06044" height="29.6703" transform="matrix(-1 0 0 1 91.8956 0)" fill="#6C6C6C"/>
<rect width="2.06044" height="21.0165" transform="matrix(-1 0 0 1 45.7418 0)" fill="#6C6C6C"/>
<circle cx="12.3626" cy="12.3626" r="7.36264" transform="matrix(-1 0 0 1 87.7747 125.275)" stroke="#5B5B5B" stroke-width="10"/>
<path d="M34.2582 137.637C34.2582 141.704 37.5546 145 41.6209 145C45.6872 145 48.9835 141.704 48.9835 137.637C48.9835 133.571 45.6872 130.275 41.6209 130.275C37.5546 130.275 34.2582 133.571 34.2582 137.637Z" stroke="#5B5B5B" stroke-width="10"/>
<ellipse cx="2.47253" cy="2.47253" rx="2.47253" ry="2.47253" transform="matrix(-1 0 0 1 97.2527 115.797)" fill="#5B5B5B"/>
<circle cx="2.47253" cy="2.47253" r="2.47253" transform="matrix(-1 0 0 1 154.121 18.9561)" fill="#5B5B5B"/>
<circle cx="2.47253" cy="2.47253" r="2.47253" transform="matrix(-1 0 0 1 134.341 22.2527)" fill="#5B5B5B"/>
<ellipse cx="2.47253" cy="2.47253" rx="2.47253" ry="2.47253" transform="matrix(-1 0 0 1 28.4341 115.797)" fill="#5B5B5B"/>
<ellipse cx="1.64835" cy="1.64835" rx="1.64835" ry="1.64835" transform="matrix(-1 0 0 1 3.29671 46.5659)" fill="#5B5B5B"/>
<ellipse cx="1.64835" cy="1.64835" rx="1.64835" ry="1.64835" transform="matrix(-1 0 0 1 19.7802 98.0769)" fill="#5B5B5B"/>
<rect width="3.2967" height="53.1593" transform="matrix(-0.972838 -0.231488 -0.231488 0.972838 100.962 48.5654)" fill="#5B5B5B"/>
<rect width="3.2967" height="53.1593" transform="matrix(-0.973156 0.230147 0.230147 0.973156 20.9798 47.4977)" fill="#5B5B5B"/>
<rect width="3.2967" height="53.1593" transform="matrix(-0.999951 0.00991841 0.00991841 0.999951 60.5197 47.387)" fill="#5B5B5B"/>
</svg>
