<svg width="186" height="173" viewBox="0 0 186 173" fill="none" xmlns="http://www.w3.org/2000/svg">
<rect x="45" y="53" width="55" height="58" fill="#E7E7E7"/>
<rect x="50" y="53.2263" width="31.4935" height="8.11688" transform="rotate(-24.8325 50 53.2263)" fill="#E7E7E7"/>
<rect x="73.1784" y="105.82" width="31.1688" height="15.2597" fill="#E7E7E7"/>
<rect x="54.3473" y="103.547" width="33.1169" height="32.1429" fill="#E7E7E7"/>
<rect x="81" y="114.226" width="31.4935" height="8.11688" transform="rotate(-24.8325 81 114.226)" fill="#E7E7E7"/>
<rect x="104.347" y="24.976" width="77.5974" height="106.818" fill="#E7E7E7"/>
<rect x="58" y="30" width="104" height="83" fill="#E7E7E7"/>
<rect x="58" y="30" width="104" height="83" fill="#E7E7E7"/>
<rect x="62.1395" y="23.3527" width="123.701" height="6.81818" fill="#5B5B5B"/>
<rect x="96.7696" y="83.2463" width="99.1789" height="6.81818" transform="rotate(-35 96.7696 83.2463)" fill="#5B5B5B"/>
<rect width="55.7939" height="6.81818" transform="matrix(-0.819152 -0.573576 -0.573576 0.819152 104.187 83.2194)" fill="#5B5B5B"/>
<rect x="179.023" y="131.794" width="108.442" height="6.81818" transform="rotate(-90 179.023 131.794)" fill="#5B5B5B"/>
<rect x="127" y="125" width="59" height="7" fill="#5B5B5B"/>
<path d="M101.715 154.646C91.1674 159.429 77.7883 156.819 64.5213 147.391C51.2544 137.963 39.1864 122.489 30.9721 104.373C22.7578 86.2573 19.0701 66.9834 20.7202 50.7916C22.3704 34.5998 29.2233 22.8163 39.7713 18.0335L54.9755 51.5651C49.6056 54.0001 46.1168 59.999 45.2767 68.2422C44.4366 76.4855 46.314 86.2978 50.4959 95.5205C54.6778 104.743 60.8216 112.621 67.5758 117.421C74.3299 122.221 81.1412 123.549 86.5112 121.114L101.715 154.646Z" fill="#E08C4E"/>
<rect x="42.2848" y="16.8939" width="24.8072" height="36.6188" transform="rotate(-24.3909 42.2848 16.8939)" fill="#E08C4E"/>
<rect x="89" y="120.244" width="24.8072" height="36.6188" transform="rotate(-24.3909 89 120.244)" fill="#E08C4E"/>
</svg>
