<svg width="455" height="455" viewBox="0 0 455 455" fill="none" xmlns="http://www.w3.org/2000/svg">
<rect width="35" height="35" fill="#E08C4E"/>
<rect x="420" y="420" width="35" height="35" fill="#E08C4E"/>
<rect x="360" y="420" width="35" height="35" fill="#E08C4E"/>
<rect x="300" y="420" width="35" height="35" fill="#E08C4E"/>
<rect x="240" y="420" width="35" height="35" fill="#E08C4E"/>
<rect x="180" y="420" width="35" height="35" fill="#E08C4E"/>
<rect x="120" y="420" width="35" height="35" fill="#E08C4E"/>
<rect x="60" y="420" width="35" height="35" fill="#E08C4E"/>
<rect x="420" y="360" width="35" height="35" fill="#E08C4E"/>
<rect x="360" y="360" width="35" height="35" fill="#E08C4E"/>
<rect x="300" y="360" width="35" height="35" fill="#E08C4E"/>
<rect x="240" y="360" width="35" height="35" fill="#E08C4E"/>
<rect x="180" y="360" width="35" height="35" fill="#E08C4E"/>
<rect x="120" y="360" width="35" height="35" fill="#E08C4E"/>
<rect x="60" y="360" width="35" height="35" fill="#E08C4E"/>
<rect x="420" y="300" width="35" height="35" fill="#E08C4E"/>
<rect x="360" y="300" width="35" height="35" fill="#E08C4E"/>
<rect x="300" y="300" width="35" height="35" fill="#E08C4E"/>
<rect x="240" y="300" width="35" height="35" fill="#E08C4E"/>
<rect x="180" y="300" width="35" height="35" fill="#E08C4E"/>
<rect x="120" y="300" width="35" height="35" fill="#E08C4E"/>
<rect x="60" y="300" width="35" height="35" fill="#E08C4E"/>
<rect x="420" y="240" width="35" height="35" fill="#E08C4E"/>
<rect x="360" y="240" width="35" height="35" fill="#E08C4E"/>
<rect x="300" y="240" width="35" height="35" fill="#E08C4E"/>
<rect x="240" y="240" width="35" height="35" fill="#E08C4E"/>
<rect x="180" y="240" width="35" height="35" fill="#E08C4E"/>
<rect x="120" y="240" width="35" height="35" fill="#E08C4E"/>
<rect x="60" y="240" width="35" height="35" fill="#E08C4E"/>
<rect x="420" y="180" width="35" height="35" fill="#E08C4E"/>
<rect x="360" y="180" width="35" height="35" fill="#E08C4E"/>
<rect x="300" y="180" width="35" height="35" fill="#E08C4E"/>
<rect x="240" y="180" width="35" height="35" fill="#E08C4E"/>
<rect x="180" y="180" width="35" height="35" fill="#E08C4E"/>
<rect x="120" y="180" width="35" height="35" fill="#E08C4E"/>
<rect x="60" y="180" width="35" height="35" fill="#E08C4E"/>
<rect x="420" y="120" width="35" height="35" fill="#E08C4E"/>
<rect x="360" y="120" width="35" height="35" fill="#E08C4E"/>
<rect x="300" y="120" width="35" height="35" fill="#E08C4E"/>
<rect x="240" y="120" width="35" height="35" fill="#E08C4E"/>
<rect x="180" y="120" width="35" height="35" fill="#E08C4E"/>
<rect x="120" y="120" width="35" height="35" fill="#E08C4E"/>
<rect x="60" y="120" width="35" height="35" fill="#E08C4E"/>
<rect x="420" y="60" width="35" height="35" fill="#E08C4E"/>
<rect x="360" y="60" width="35" height="35" fill="#E08C4E"/>
<rect x="300" y="60" width="35" height="35" fill="#E08C4E"/>
<rect x="240" y="60" width="35" height="35" fill="#E08C4E"/>
<rect x="180" y="60" width="35" height="35" fill="#E08C4E"/>
<rect x="120" y="60" width="35" height="35" fill="#E08C4E"/>
<rect x="60" y="60" width="35" height="35" fill="#E08C4E"/>
<rect y="420" width="35" height="35" fill="#E08C4E"/>
<rect y="360" width="35" height="35" fill="#E08C4E"/>
<rect y="300" width="35" height="35" fill="#E08C4E"/>
<rect y="240" width="35" height="35" fill="#E08C4E"/>
<rect y="180" width="35" height="35" fill="#E08C4E"/>
<rect y="120" width="35" height="35" fill="#E08C4E"/>
<rect y="60" width="35" height="35" fill="#E08C4E"/>
<rect x="420" width="35" height="35" fill="#E08C4E"/>
<rect x="360" width="35" height="35" fill="#E08C4E"/>
<rect x="300" width="35" height="35" fill="#E08C4E"/>
<rect x="240" width="35" height="35" fill="#E08C4E"/>
<rect x="180" width="35" height="35" fill="#E08C4E"/>
<rect x="120" width="35" height="35" fill="#E08C4E"/>
<rect x="60" width="35" height="35" fill="#E08C4E"/>
</svg>
