<svg width="150" height="143" viewBox="0 0 150 143" fill="none" xmlns="http://www.w3.org/2000/svg">
<path d="M74.6462 18.0984L135.922 71.1644H13.3708L74.6462 18.0984Z" fill="#E08C4E"/>
<rect x="13.4434" y="71.1644" width="45.9906" height="71.816" fill="#E08C4E"/>
<rect x="89.8585" y="71.1644" width="45.9906" height="71.816" fill="#E08C4E"/>
<rect x="45.9906" y="54.1833" width="57.3113" height="36.0849" fill="#E08C4E"/>
<rect x="1.06131" y="64.4493" width="97.7808" height="8.84434" transform="rotate(-41.0434 1.06131 64.4493)" fill="#5B5B5B"/>
<ellipse cx="4.42217" cy="67.4498" rx="4.42217" ry="4.42217" fill="#5B5B5B"/>
<rect width="98.0199" height="8.84434" transform="matrix(0.754213 0.65663 0.65663 -0.754213 69.1645 6.75708)" fill="#5B5B5B"/>
<ellipse cx="4.42217" cy="4.42217" rx="4.42217" ry="4.42217" transform="matrix(1 0 0 -1 141.156 71.8719)" fill="#5B5B5B"/>
<rect x="26.1793" y="18.0984" width="12.7358" height="24.7642" fill="#5B5B5B"/>
<rect x="14" y="70.7386" width="36.0289" height="44.0524" transform="rotate(-41.2142 14 70.7386)" fill="#E08C4E"/>
<rect width="38" height="42.4905" transform="matrix(-0.752252 -0.658876 -0.658876 0.752252 135.611 72.0373)" fill="#E08C4E"/>
</svg>
